<svg width="136" height="60" viewBox="0 0 136 60" fill="none" xmlns="http://www.w3.org/2000/svg">
<g filter="url(#filter0_i_144_73)">
<path d="M11.6602 25.9961C11.6602 25.5273 11.4844 25.293 11.1328 25.293C10.8073 25.293 10.6445 25.4883 10.6445 25.8789V27.8906C10.7487 27.9818 10.9049 28.0273 11.1133 28.0273C11.3216 28.0273 11.4648 27.9492 11.543 27.793C11.6211 27.6367 11.6602 27.3503 11.6602 26.9336V25.9961ZM12.3828 33.9062C11.5495 33.9062 10.8398 33.8477 10.2539 33.7305C10.2148 33.8477 10.1953 33.9583 10.1953 34.0625C10.1953 34.349 10.3971 34.5443 10.8008 34.6484C11.2174 34.7396 11.7448 34.7852 12.3828 34.7852C14.4141 34.7852 16.1458 34.4857 17.5781 33.8867C18.9844 34.2513 20.0781 35.0456 20.8594 36.2695C21.4974 37.2721 21.8164 38.4505 21.8164 39.8047C21.8164 42.2135 20.7943 44.0885 18.75 45.4297C16.7057 46.7708 14.069 47.4414 10.8398 47.4414C7.6237 47.4414 5.13672 46.8685 3.37891 45.7227C1.7513 44.681 0.9375 43.3268 0.9375 41.6602C0.9375 41.0221 1.08724 40.4102 1.38672 39.8242C1.6862 39.2253 2.03125 38.8151 2.42188 38.5938C3.07292 39.1406 4.02995 39.5833 5.29297 39.9219C6.56901 40.2604 7.8776 40.4297 9.21875 40.4297C10.5599 40.4297 11.4193 40.3776 11.7969 40.2734C12.1875 40.1693 12.3828 39.987 12.3828 39.7266C12.3828 39.5964 12.3438 39.4661 12.2656 39.3359C11.6146 39.4792 10.8008 39.5508 9.82422 39.5508C7.3112 39.5508 5.33854 39.1927 3.90625 38.4766C2.16146 37.6172 1.28906 36.3216 1.28906 34.5898C1.28906 33.9128 1.42578 33.2878 1.69922 32.7148C1.97266 32.1289 2.3763 31.6927 2.91016 31.4062C2.19401 30.9635 1.58203 30.293 1.07422 29.3945C0.579427 28.4961 0.332031 27.3893 0.332031 26.0742C0.332031 23.5742 1.26953 21.6016 3.14453 20.1562C5.01953 18.7109 7.45443 17.9883 10.4492 17.9883C11.8945 17.9883 13.2878 18.2292 14.6289 18.7109V17.3438C15.3971 17.0443 16.4128 16.8945 17.6758 16.8945C18.9518 16.8945 19.9219 17.1094 20.5859 17.5391C21.3932 18.0599 21.7969 18.9779 21.7969 20.293C21.7969 21.0221 21.7188 21.6081 21.5625 22.0508C21.4193 22.4935 21.2044 22.9557 20.918 23.4375C21.2565 24.2969 21.4258 25.3646 21.4258 26.6406C21.4258 28.9453 20.6055 30.7357 18.9648 32.0117C17.3372 33.2747 15.1432 33.9062 12.3828 33.9062ZM32.6562 29.1211V32.5391C32.7474 32.6302 32.8971 32.6758 33.1055 32.6758C33.3138 32.6758 33.4635 32.6042 33.5547 32.4609C33.6458 32.3177 33.6914 32.0703 33.6914 31.7188V28.9258C33.6914 27.6758 33.6393 26.849 33.5352 26.4453C33.431 26.0286 33.2357 25.8203 32.9492 25.8203C32.7669 25.8203 32.6107 25.8854 32.4805 26.0156C32.5977 27.3047 32.6562 28.3398 32.6562 29.1211ZM25.3516 37.7734C23.2161 35.7161 22.1484 32.9297 22.1484 29.4141C22.1484 25.8854 23.151 23.1055 25.1562 21.0742C27.1745 19.0299 29.8177 18.0078 33.0859 18.0078C36.3542 18.0078 38.9974 19.069 41.0156 21.1914C43.0208 23.3138 44.0234 26.0807 44.0234 29.4922C44.0234 32.8906 43.0534 35.5924 41.1133 37.5977C39.1862 39.6029 36.5625 40.6055 33.2422 40.6055C29.9219 40.6055 27.2917 39.6615 25.3516 37.7734ZM65.9766 30.332C65.9766 31.2695 66.0807 32.0247 66.2891 32.5977C66.4974 33.1706 66.862 33.6198 67.3828 33.9453C67.3958 34.0104 67.4023 34.1341 67.4023 34.3164V34.668C67.4023 36.4648 66.8815 37.8646 65.8398 38.8672C64.8112 39.8568 63.4766 40.3516 61.8359 40.3516C60.2083 40.3516 58.8867 39.8893 57.8711 38.9648C56.6862 37.9102 56.0938 36.3086 56.0938 34.1602C56.0938 33.2487 56.1328 32.4479 56.2109 31.7578C56.3021 31.0547 56.3607 30.5534 56.3867 30.2539C56.4258 29.9544 56.4648 29.6745 56.5039 29.4141C56.543 29.1536 56.5625 28.7695 56.5625 28.2617C56.5625 27.7539 56.4909 27.3893 56.3477 27.168C56.2174 26.9466 56.0286 26.8359 55.7812 26.8359C55.5469 26.8359 55.3385 26.888 55.1562 26.9922L55.4102 30.1758C55.1758 31.4909 55.0586 32.8841 55.0586 34.3555C55.0586 35.8268 55.3906 37.168 56.0547 38.3789C54.7786 39.694 52.9883 40.3516 50.6836 40.3516C49.3685 40.3516 48.2292 40.0065 47.2656 39.3164C46.1458 38.5352 45.5859 37.5 45.5859 36.2109V26.7578C44.8177 25.6771 44.4336 24.349 44.4336 22.7734C44.4336 21.1849 44.8177 19.8112 45.5859 18.6523H49.0625C49.987 18.6523 50.7747 18.9974 51.4258 19.6875C50.8529 20.2214 50.5664 20.6641 50.5664 21.0156C50.5664 21.4193 50.7943 21.6211 51.25 21.6211C51.8229 20.6315 52.6953 19.8112 53.8672 19.1602C55.0521 18.5091 56.3932 18.1836 57.8906 18.1836C60.1432 18.1836 61.9727 18.737 63.3789 19.8438C65.1497 21.237 66.0352 23.3984 66.0352 26.3281L65.9766 30.332ZM79.043 25.9961C79.043 25.5273 78.8672 25.293 78.5156 25.293C78.1901 25.293 78.0273 25.4883 78.0273 25.8789V27.8906C78.1315 27.9818 78.2878 28.0273 78.4961 28.0273C78.7044 28.0273 78.8477 27.9492 78.9258 27.793C79.0039 27.6367 79.043 27.3503 79.043 26.9336V25.9961ZM79.7656 33.9062C78.9323 33.9062 78.2227 33.8477 77.6367 33.7305C77.5977 33.8477 77.5781 33.9583 77.5781 34.0625C77.5781 34.349 77.7799 34.5443 78.1836 34.6484C78.6003 34.7396 79.1276 34.7852 79.7656 34.7852C81.7969 34.7852 83.5286 34.4857 84.9609 33.8867C86.3672 34.2513 87.4609 35.0456 88.2422 36.2695C88.8802 37.2721 89.1992 38.4505 89.1992 39.8047C89.1992 42.2135 88.1771 44.0885 86.1328 45.4297C84.0885 46.7708 81.4518 47.4414 78.2227 47.4414C75.0065 47.4414 72.5195 46.8685 70.7617 45.7227C69.1341 44.681 68.3203 43.3268 68.3203 41.6602C68.3203 41.0221 68.4701 40.4102 68.7695 39.8242C69.069 39.2253 69.4141 38.8151 69.8047 38.5938C70.4557 39.1406 71.4128 39.5833 72.6758 39.9219C73.9518 40.2604 75.2604 40.4297 76.6016 40.4297C77.9427 40.4297 78.8021 40.3776 79.1797 40.2734C79.5703 40.1693 79.7656 39.987 79.7656 39.7266C79.7656 39.5964 79.7266 39.4661 79.6484 39.3359C78.9974 39.4792 78.1836 39.5508 77.207 39.5508C74.694 39.5508 72.7214 39.1927 71.2891 38.4766C69.5443 37.6172 68.6719 36.3216 68.6719 34.5898C68.6719 33.9128 68.8086 33.2878 69.082 32.7148C69.3555 32.1289 69.7591 31.6927 70.293 31.4062C69.5768 30.9635 68.9648 30.293 68.457 29.3945C67.9622 28.4961 67.7148 27.3893 67.7148 26.0742C67.7148 23.5742 68.6523 21.6016 70.5273 20.1562C72.4023 18.7109 74.8372 17.9883 77.832 17.9883C79.2773 17.9883 80.6706 18.2292 82.0117 18.7109V17.3438C82.7799 17.0443 83.7956 16.8945 85.0586 16.8945C86.3346 16.8945 87.3047 17.1094 87.9688 17.5391C88.776 18.0599 89.1797 18.9779 89.1797 20.293C89.1797 21.0221 89.1016 21.6081 88.9453 22.0508C88.8021 22.4935 88.5872 22.9557 88.3008 23.4375C88.6393 24.2969 88.8086 25.3646 88.8086 26.6406C88.8086 28.9453 87.9883 30.7357 86.3477 32.0117C84.7201 33.2747 82.526 33.9062 79.7656 33.9062ZM101.504 25.9961C101.504 25.5273 101.328 25.293 100.977 25.293C100.651 25.293 100.488 25.4883 100.488 25.8789V27.8906C100.592 27.9818 100.749 28.0273 100.957 28.0273C101.165 28.0273 101.309 27.9492 101.387 27.793C101.465 27.6367 101.504 27.3503 101.504 26.9336V25.9961ZM102.227 33.9062C101.393 33.9062 100.684 33.8477 100.098 33.7305C100.059 33.8477 100.039 33.9583 100.039 34.0625C100.039 34.349 100.241 34.5443 100.645 34.6484C101.061 34.7396 101.589 34.7852 102.227 34.7852C104.258 34.7852 105.99 34.4857 107.422 33.8867C108.828 34.2513 109.922 35.0456 110.703 36.2695C111.341 37.2721 111.66 38.4505 111.66 39.8047C111.66 42.2135 110.638 44.0885 108.594 45.4297C106.549 46.7708 103.913 47.4414 100.684 47.4414C97.4674 47.4414 94.9805 46.8685 93.2227 45.7227C91.5951 44.681 90.7812 43.3268 90.7812 41.6602C90.7812 41.0221 90.931 40.4102 91.2305 39.8242C91.5299 39.2253 91.875 38.8151 92.2656 38.5938C92.9167 39.1406 93.8737 39.5833 95.1367 39.9219C96.4128 40.2604 97.7214 40.4297 99.0625 40.4297C100.404 40.4297 101.263 40.3776 101.641 40.2734C102.031 40.1693 102.227 39.987 102.227 39.7266C102.227 39.5964 102.188 39.4661 102.109 39.3359C101.458 39.4792 100.645 39.5508 99.668 39.5508C97.1549 39.5508 95.1823 39.1927 93.75 38.4766C92.0052 37.6172 91.1328 36.3216 91.1328 34.5898C91.1328 33.9128 91.2695 33.2878 91.543 32.7148C91.8164 32.1289 92.2201 31.6927 92.7539 31.4062C92.0378 30.9635 91.4258 30.293 90.918 29.3945C90.4232 28.4961 90.1758 27.3893 90.1758 26.0742C90.1758 23.5742 91.1133 21.6016 92.9883 20.1562C94.8633 18.7109 97.2982 17.9883 100.293 17.9883C101.738 17.9883 103.132 18.2292 104.473 18.7109V17.3438C105.241 17.0443 106.257 16.8945 107.52 16.8945C108.796 16.8945 109.766 17.1094 110.43 17.5391C111.237 18.0599 111.641 18.9779 111.641 20.293C111.641 21.0221 111.562 21.6081 111.406 22.0508C111.263 22.4935 111.048 22.9557 110.762 23.4375C111.1 24.2969 111.27 25.3646 111.27 26.6406C111.27 28.9453 110.449 30.7357 108.809 32.0117C107.181 33.2747 104.987 33.9062 102.227 33.9062ZM123.711 31.4844C123.867 31.4844 124.036 31.4193 124.219 31.2891C124.089 30.8594 124.023 30.1888 124.023 29.2773V19.6289C125.404 18.7956 127.064 18.3789 129.004 18.3789C130.098 18.3789 131.055 18.5286 131.875 18.8281C132.708 19.1146 133.346 19.4987 133.789 19.9805V30.1562C133.789 32.0964 134.258 33.3594 135.195 33.9453C135.208 34.0104 135.215 34.1341 135.215 34.3164V34.668C135.215 36.569 134.714 38.0078 133.711 38.9844C132.799 39.8958 131.543 40.3516 129.941 40.3516C128.939 40.3516 128.027 40.1237 127.207 39.668C126.4 39.2122 125.794 38.5482 125.391 37.6758C124.948 37.6758 124.727 37.8906 124.727 38.3203C124.727 38.6198 124.876 38.9193 125.176 39.2188C124.759 39.5573 124.258 39.8307 123.672 40.0391C123.086 40.2474 122.22 40.3516 121.074 40.3516C119.941 40.3516 118.835 40.1172 117.754 39.6484C116.413 39.0755 115.384 38.1966 114.668 37.0117C113.796 35.6055 113.359 33.8216 113.359 31.6602V26.7578C112.695 25.599 112.363 24.3229 112.363 22.9297C112.363 22.2135 112.454 21.4714 112.637 20.7031C112.819 19.9349 113.112 19.2513 113.516 18.6523H117.812C119.427 18.6523 120.69 19.0365 121.602 19.8047C122.526 20.5599 122.988 21.7122 122.988 23.2617V29.5898C122.988 30.8529 123.229 31.4844 123.711 31.4844Z" fill="#53389E"/>
</g>
<defs>
<filter id="filter0_i_144_73" x="0.332031" y="16.8945" width="134.883" height="34.5469" filterUnits="userSpaceOnUse" color-interpolation-filters="sRGB">
<feFlood flood-opacity="0" result="BackgroundImageFix"/>
<feBlend mode="normal" in="SourceGraphic" in2="BackgroundImageFix" result="shape"/>
<feColorMatrix in="SourceAlpha" type="matrix" values="0 0 0 0 0 0 0 0 0 0 0 0 0 0 0 0 0 0 127 0" result="hardAlpha"/>
<feOffset dy="4"/>
<feGaussianBlur stdDeviation="2"/>
<feComposite in2="hardAlpha" operator="arithmetic" k2="-1" k3="1"/>
<feColorMatrix type="matrix" values="0 0 0 0 0 0 0 0 0 0 0 0 0 0 0 0 0 0 0.25 0"/>
<feBlend mode="normal" in2="shape" result="effect1_innerShadow_144_73"/>
</filter>
</defs>
</svg>
