<svg width="211" height="90" viewBox="0 0 211 90" fill="none" xmlns="http://www.w3.org/2000/svg">
<g filter="url(#filter0_i_336_34)">
<path d="M21.4902 37.9941C21.4902 37.291 21.2266 36.9395 20.6992 36.9395C20.2109 36.9395 19.9668 37.2324 19.9668 37.8184V40.8359C20.123 40.9727 20.3574 41.041 20.6699 41.041C20.9824 41.041 21.1973 40.9238 21.3145 40.6895C21.4316 40.4551 21.4902 40.0254 21.4902 39.4004V37.9941ZM22.5742 49.8594C21.3242 49.8594 20.2598 49.7715 19.3809 49.5957C19.3223 49.7715 19.293 49.9375 19.293 50.0938C19.293 50.5234 19.5957 50.8164 20.2012 50.9727C20.8262 51.1094 21.6172 51.1777 22.5742 51.1777C25.6211 51.1777 28.2188 50.7285 30.3672 49.8301C32.4766 50.377 34.1172 51.5684 35.2891 53.4043C36.2461 54.9082 36.7246 56.6758 36.7246 58.707C36.7246 62.3203 35.1914 65.1328 32.125 67.1445C29.0586 69.1562 25.1035 70.1621 20.2598 70.1621C15.4355 70.1621 11.7051 69.3027 9.06836 67.584C6.62695 66.0215 5.40625 63.9902 5.40625 61.4902C5.40625 60.5332 5.63086 59.6152 6.08008 58.7363C6.5293 57.8379 7.04688 57.2227 7.63281 56.8906C8.60938 57.7109 10.0449 58.375 11.9395 58.8828C13.8535 59.3906 15.8164 59.6445 17.8281 59.6445C19.8398 59.6445 21.1289 59.5664 21.6953 59.4102C22.2812 59.2539 22.5742 58.9805 22.5742 58.5898C22.5742 58.3945 22.5156 58.1992 22.3984 58.0039C21.4219 58.2188 20.2012 58.3262 18.7363 58.3262C14.9668 58.3262 12.0078 57.7891 9.85938 56.7148C7.24219 55.4258 5.93359 53.4824 5.93359 50.8848C5.93359 49.8691 6.13867 48.9316 6.54883 48.0723C6.95898 47.1934 7.56445 46.5391 8.36523 46.1094C7.29102 45.4453 6.37305 44.4395 5.61133 43.0918C4.86914 41.7441 4.49805 40.084 4.49805 38.1113C4.49805 34.3613 5.9043 31.4023 8.7168 29.2344C11.5293 27.0664 15.1816 25.9824 19.6738 25.9824C21.8418 25.9824 23.9316 26.3437 25.9434 27.0664V25.0156C27.0957 24.5664 28.6191 24.3418 30.5137 24.3418C32.4277 24.3418 33.8828 24.6641 34.8789 25.3086C36.0898 26.0898 36.6953 27.4668 36.6953 29.4395C36.6953 30.5332 36.5781 31.4121 36.3438 32.0762C36.1289 32.7402 35.8066 33.4336 35.377 34.1562C35.8848 35.4453 36.1387 37.0469 36.1387 38.9609C36.1387 42.418 34.9082 45.1035 32.4473 47.0176C30.0059 48.9121 26.7148 49.8594 22.5742 49.8594ZM52.9844 42.6816V47.8086C53.1211 47.9453 53.3457 48.0137 53.6582 48.0137C53.9707 48.0137 54.1953 47.9062 54.332 47.6914C54.4688 47.4766 54.5371 47.1055 54.5371 46.5781V42.3887C54.5371 40.5137 54.459 39.2734 54.3027 38.668C54.1465 38.043 53.8535 37.7305 53.4238 37.7305C53.1504 37.7305 52.916 37.8281 52.7207 38.0234C52.8965 39.957 52.9844 41.5098 52.9844 42.6816ZM42.0273 55.6602C38.8242 52.5742 37.2227 48.3945 37.2227 43.1211C37.2227 37.8281 38.7266 33.6582 41.7344 30.6113C44.7617 27.5449 48.7266 26.0117 53.6289 26.0117C58.5312 26.0117 62.4961 27.6035 65.5234 30.7871C68.5312 33.9707 70.0352 38.1211 70.0352 43.2383C70.0352 48.3359 68.5801 52.3887 65.6699 55.3965C62.7793 58.4043 58.8438 59.9082 53.8633 59.9082C48.8828 59.9082 44.9375 58.4922 42.0273 55.6602ZM102.965 44.498C102.965 45.9043 103.121 47.0371 103.434 47.8965C103.746 48.7559 104.293 49.4297 105.074 49.918C105.094 50.0156 105.104 50.2012 105.104 50.4746V51.002C105.104 53.6973 104.322 55.7969 102.76 57.3008C101.217 58.7852 99.2148 59.5273 96.7539 59.5273C94.3125 59.5273 92.3301 58.834 90.8066 57.4473C89.0293 55.8652 88.1406 53.4629 88.1406 50.2402C88.1406 48.873 88.1992 47.6719 88.3164 46.6367C88.4531 45.582 88.541 44.8301 88.5801 44.3809C88.6387 43.9316 88.6973 43.5117 88.7559 43.1211C88.8145 42.7305 88.8438 42.1543 88.8438 41.3926C88.8438 40.6309 88.7363 40.084 88.5215 39.752C88.3262 39.4199 88.043 39.2539 87.6719 39.2539C87.3203 39.2539 87.0078 39.332 86.7344 39.4883L87.1152 44.2637C86.7637 46.2363 86.5879 48.3262 86.5879 50.5332C86.5879 52.7402 87.0859 54.752 88.082 56.5684C86.168 58.541 83.4824 59.5273 80.0254 59.5273C78.0527 59.5273 76.3438 59.0098 74.8984 57.9746C73.2188 56.8027 72.3789 55.25 72.3789 53.3164V39.1367C71.2266 37.5156 70.6504 35.5234 70.6504 33.1602C70.6504 30.7773 71.2266 28.7168 72.3789 26.9785H77.5938C78.9805 26.9785 80.1621 27.4961 81.1387 28.5312C80.2793 29.332 79.8496 29.9961 79.8496 30.5234C79.8496 31.1289 80.1914 31.4316 80.875 31.4316C81.7344 29.9473 83.043 28.7168 84.8008 27.7402C86.5781 26.7637 88.5898 26.2754 90.8359 26.2754C94.2148 26.2754 96.959 27.1055 99.0684 28.7656C101.725 30.8555 103.053 34.0977 103.053 38.4922L102.965 44.498ZM122.564 37.9941C122.564 37.291 122.301 36.9395 121.773 36.9395C121.285 36.9395 121.041 37.2324 121.041 37.8184V40.8359C121.197 40.9727 121.432 41.041 121.744 41.041C122.057 41.041 122.271 40.9238 122.389 40.6895C122.506 40.4551 122.564 40.0254 122.564 39.4004V37.9941ZM123.648 49.8594C122.398 49.8594 121.334 49.7715 120.455 49.5957C120.396 49.7715 120.367 49.9375 120.367 50.0938C120.367 50.5234 120.67 50.8164 121.275 50.9727C121.9 51.1094 122.691 51.1777 123.648 51.1777C126.695 51.1777 129.293 50.7285 131.441 49.8301C133.551 50.377 135.191 51.5684 136.363 53.4043C137.32 54.9082 137.799 56.6758 137.799 58.707C137.799 62.3203 136.266 65.1328 133.199 67.1445C130.133 69.1562 126.178 70.1621 121.334 70.1621C116.51 70.1621 112.779 69.3027 110.143 67.584C107.701 66.0215 106.48 63.9902 106.48 61.4902C106.48 60.5332 106.705 59.6152 107.154 58.7363C107.604 57.8379 108.121 57.2227 108.707 56.8906C109.684 57.7109 111.119 58.375 113.014 58.8828C114.928 59.3906 116.891 59.6445 118.902 59.6445C120.914 59.6445 122.203 59.5664 122.77 59.4102C123.355 59.2539 123.648 58.9805 123.648 58.5898C123.648 58.3945 123.59 58.1992 123.473 58.0039C122.496 58.2188 121.275 58.3262 119.811 58.3262C116.041 58.3262 113.082 57.7891 110.934 56.7148C108.316 55.4258 107.008 53.4824 107.008 50.8848C107.008 49.8691 107.213 48.9316 107.623 48.0723C108.033 47.1934 108.639 46.5391 109.439 46.1094C108.365 45.4453 107.447 44.4395 106.686 43.0918C105.943 41.7441 105.572 40.084 105.572 38.1113C105.572 34.3613 106.979 31.4023 109.791 29.2344C112.604 27.0664 116.256 25.9824 120.748 25.9824C122.916 25.9824 125.006 26.3437 127.018 27.0664V25.0156C128.17 24.5664 129.693 24.3418 131.588 24.3418C133.502 24.3418 134.957 24.6641 135.953 25.3086C137.164 26.0898 137.77 27.4668 137.77 29.4395C137.77 30.5332 137.652 31.4121 137.418 32.0762C137.203 32.7402 136.881 33.4336 136.451 34.1562C136.959 35.4453 137.213 37.0469 137.213 38.9609C137.213 42.418 135.982 45.1035 133.521 47.0176C131.08 48.9121 127.789 49.8594 123.648 49.8594ZM156.256 37.9941C156.256 37.291 155.992 36.9395 155.465 36.9395C154.977 36.9395 154.732 37.2324 154.732 37.8184V40.8359C154.889 40.9727 155.123 41.041 155.436 41.041C155.748 41.041 155.963 40.9238 156.08 40.6895C156.197 40.4551 156.256 40.0254 156.256 39.4004V37.9941ZM157.34 49.8594C156.09 49.8594 155.025 49.7715 154.146 49.5957C154.088 49.7715 154.059 49.9375 154.059 50.0938C154.059 50.5234 154.361 50.8164 154.967 50.9727C155.592 51.1094 156.383 51.1777 157.34 51.1777C160.387 51.1777 162.984 50.7285 165.133 49.8301C167.242 50.377 168.883 51.5684 170.055 53.4043C171.012 54.9082 171.49 56.6758 171.49 58.707C171.49 62.3203 169.957 65.1328 166.891 67.1445C163.824 69.1562 159.869 70.1621 155.025 70.1621C150.201 70.1621 146.471 69.3027 143.834 67.584C141.393 66.0215 140.172 63.9902 140.172 61.4902C140.172 60.5332 140.396 59.6152 140.846 58.7363C141.295 57.8379 141.812 57.2227 142.398 56.8906C143.375 57.7109 144.811 58.375 146.705 58.8828C148.619 59.3906 150.582 59.6445 152.594 59.6445C154.605 59.6445 155.895 59.5664 156.461 59.4102C157.047 59.2539 157.34 58.9805 157.34 58.5898C157.34 58.3945 157.281 58.1992 157.164 58.0039C156.188 58.2188 154.967 58.3262 153.502 58.3262C149.732 58.3262 146.773 57.7891 144.625 56.7148C142.008 55.4258 140.699 53.4824 140.699 50.8848C140.699 49.8691 140.904 48.9316 141.314 48.0723C141.725 47.1934 142.33 46.5391 143.131 46.1094C142.057 45.4453 141.139 44.4395 140.377 43.0918C139.635 41.7441 139.264 40.084 139.264 38.1113C139.264 34.3613 140.67 31.4023 143.482 29.2344C146.295 27.0664 149.947 25.9824 154.439 25.9824C156.607 25.9824 158.697 26.3437 160.709 27.0664V25.0156C161.861 24.5664 163.385 24.3418 165.279 24.3418C167.193 24.3418 168.648 24.6641 169.645 25.3086C170.855 26.0898 171.461 27.4668 171.461 29.4395C171.461 30.5332 171.344 31.4121 171.109 32.0762C170.895 32.7402 170.572 33.4336 170.143 34.1562C170.65 35.4453 170.904 37.0469 170.904 38.9609C170.904 42.418 169.674 45.1035 167.213 47.0176C164.771 48.9121 161.48 49.8594 157.34 49.8594ZM189.566 46.2266C189.801 46.2266 190.055 46.1289 190.328 45.9336C190.133 45.2891 190.035 44.2832 190.035 42.916V28.4434C192.105 27.1934 194.596 26.5684 197.506 26.5684C199.146 26.5684 200.582 26.793 201.812 27.2422C203.062 27.6719 204.02 28.248 204.684 28.9707V44.2344C204.684 47.1445 205.387 49.0391 206.793 49.918C206.812 50.0156 206.822 50.2012 206.822 50.4746V51.002C206.822 53.8535 206.07 56.0117 204.566 57.4766C203.199 58.8438 201.314 59.5273 198.912 59.5273C197.408 59.5273 196.041 59.1855 194.811 58.502C193.6 57.8184 192.691 56.8223 192.086 55.5137C191.422 55.5137 191.09 55.8359 191.09 56.4805C191.09 56.9297 191.314 57.3789 191.764 57.8281C191.139 58.3359 190.387 58.7461 189.508 59.0586C188.629 59.3711 187.33 59.5273 185.611 59.5273C183.912 59.5273 182.252 59.1758 180.631 58.4727C178.619 57.6133 177.076 56.2949 176.002 54.5176C174.693 52.4082 174.039 49.7324 174.039 46.4902V39.1367C173.043 37.3984 172.545 35.4844 172.545 33.3945C172.545 32.3203 172.682 31.207 172.955 30.0547C173.229 28.9023 173.668 27.877 174.273 26.9785H180.719C183.141 26.9785 185.035 27.5547 186.402 28.707C187.789 29.8398 188.482 31.5684 188.482 33.8926V43.3848C188.482 45.2793 188.844 46.2266 189.566 46.2266Z" fill="#53389E"/>
</g>
<g filter="url(#filter1_f_336_34)">
<path d="M21.4902 37.9941C21.4902 37.291 21.2266 36.9395 20.6992 36.9395C20.2109 36.9395 19.9668 37.2324 19.9668 37.8184V40.8359C20.123 40.9727 20.3574 41.041 20.6699 41.041C20.9824 41.041 21.1973 40.9238 21.3145 40.6895C21.4316 40.4551 21.4902 40.0254 21.4902 39.4004V37.9941ZM22.5742 49.8594C21.3242 49.8594 20.2598 49.7715 19.3809 49.5957C19.3223 49.7715 19.293 49.9375 19.293 50.0938C19.293 50.5234 19.5957 50.8164 20.2012 50.9727C20.8262 51.1094 21.6172 51.1777 22.5742 51.1777C25.6211 51.1777 28.2188 50.7285 30.3672 49.8301C32.4766 50.377 34.1172 51.5684 35.2891 53.4043C36.2461 54.9082 36.7246 56.6758 36.7246 58.707C36.7246 62.3203 35.1914 65.1328 32.125 67.1445C29.0586 69.1562 25.1035 70.1621 20.2598 70.1621C15.4355 70.1621 11.7051 69.3027 9.06836 67.584C6.62695 66.0215 5.40625 63.9902 5.40625 61.4902C5.40625 60.5332 5.63086 59.6152 6.08008 58.7363C6.5293 57.8379 7.04688 57.2227 7.63281 56.8906C8.60938 57.7109 10.0449 58.375 11.9395 58.8828C13.8535 59.3906 15.8164 59.6445 17.8281 59.6445C19.8398 59.6445 21.1289 59.5664 21.6953 59.4102C22.2812 59.2539 22.5742 58.9805 22.5742 58.5898C22.5742 58.3945 22.5156 58.1992 22.3984 58.0039C21.4219 58.2188 20.2012 58.3262 18.7363 58.3262C14.9668 58.3262 12.0078 57.7891 9.85938 56.7148C7.24219 55.4258 5.93359 53.4824 5.93359 50.8848C5.93359 49.8691 6.13867 48.9316 6.54883 48.0723C6.95898 47.1934 7.56445 46.5391 8.36523 46.1094C7.29102 45.4453 6.37305 44.4395 5.61133 43.0918C4.86914 41.7441 4.49805 40.084 4.49805 38.1113C4.49805 34.3613 5.9043 31.4023 8.7168 29.2344C11.5293 27.0664 15.1816 25.9824 19.6738 25.9824C21.8418 25.9824 23.9316 26.3437 25.9434 27.0664V25.0156C27.0957 24.5664 28.6191 24.3418 30.5137 24.3418C32.4277 24.3418 33.8828 24.6641 34.8789 25.3086C36.0898 26.0898 36.6953 27.4668 36.6953 29.4395C36.6953 30.5332 36.5781 31.4121 36.3438 32.0762C36.1289 32.7402 35.8066 33.4336 35.377 34.1562C35.8848 35.4453 36.1387 37.0469 36.1387 38.9609C36.1387 42.418 34.9082 45.1035 32.4473 47.0176C30.0059 48.9121 26.7148 49.8594 22.5742 49.8594ZM52.9844 42.6816V47.8086C53.1211 47.9453 53.3457 48.0137 53.6582 48.0137C53.9707 48.0137 54.1953 47.9062 54.332 47.6914C54.4688 47.4766 54.5371 47.1055 54.5371 46.5781V42.3887C54.5371 40.5137 54.459 39.2734 54.3027 38.668C54.1465 38.043 53.8535 37.7305 53.4238 37.7305C53.1504 37.7305 52.916 37.8281 52.7207 38.0234C52.8965 39.957 52.9844 41.5098 52.9844 42.6816ZM42.0273 55.6602C38.8242 52.5742 37.2227 48.3945 37.2227 43.1211C37.2227 37.8281 38.7266 33.6582 41.7344 30.6113C44.7617 27.5449 48.7266 26.0117 53.6289 26.0117C58.5312 26.0117 62.4961 27.6035 65.5234 30.7871C68.5312 33.9707 70.0352 38.1211 70.0352 43.2383C70.0352 48.3359 68.5801 52.3887 65.6699 55.3965C62.7793 58.4043 58.8438 59.9082 53.8633 59.9082C48.8828 59.9082 44.9375 58.4922 42.0273 55.6602ZM102.965 44.498C102.965 45.9043 103.121 47.0371 103.434 47.8965C103.746 48.7559 104.293 49.4297 105.074 49.918C105.094 50.0156 105.104 50.2012 105.104 50.4746V51.002C105.104 53.6973 104.322 55.7969 102.76 57.3008C101.217 58.7852 99.2148 59.5273 96.7539 59.5273C94.3125 59.5273 92.3301 58.834 90.8066 57.4473C89.0293 55.8652 88.1406 53.4629 88.1406 50.2402C88.1406 48.873 88.1992 47.6719 88.3164 46.6367C88.4531 45.582 88.541 44.8301 88.5801 44.3809C88.6387 43.9316 88.6973 43.5117 88.7559 43.1211C88.8145 42.7305 88.8438 42.1543 88.8438 41.3926C88.8438 40.6309 88.7363 40.084 88.5215 39.752C88.3262 39.4199 88.043 39.2539 87.6719 39.2539C87.3203 39.2539 87.0078 39.332 86.7344 39.4883L87.1152 44.2637C86.7637 46.2363 86.5879 48.3262 86.5879 50.5332C86.5879 52.7402 87.0859 54.752 88.082 56.5684C86.168 58.541 83.4824 59.5273 80.0254 59.5273C78.0527 59.5273 76.3438 59.0098 74.8984 57.9746C73.2188 56.8027 72.3789 55.25 72.3789 53.3164V39.1367C71.2266 37.5156 70.6504 35.5234 70.6504 33.1602C70.6504 30.7773 71.2266 28.7168 72.3789 26.9785H77.5938C78.9805 26.9785 80.1621 27.4961 81.1387 28.5312C80.2793 29.332 79.8496 29.9961 79.8496 30.5234C79.8496 31.1289 80.1914 31.4316 80.875 31.4316C81.7344 29.9473 83.043 28.7168 84.8008 27.7402C86.5781 26.7637 88.5898 26.2754 90.8359 26.2754C94.2148 26.2754 96.959 27.1055 99.0684 28.7656C101.725 30.8555 103.053 34.0977 103.053 38.4922L102.965 44.498ZM122.564 37.9941C122.564 37.291 122.301 36.9395 121.773 36.9395C121.285 36.9395 121.041 37.2324 121.041 37.8184V40.8359C121.197 40.9727 121.432 41.041 121.744 41.041C122.057 41.041 122.271 40.9238 122.389 40.6895C122.506 40.4551 122.564 40.0254 122.564 39.4004V37.9941ZM123.648 49.8594C122.398 49.8594 121.334 49.7715 120.455 49.5957C120.396 49.7715 120.367 49.9375 120.367 50.0938C120.367 50.5234 120.67 50.8164 121.275 50.9727C121.9 51.1094 122.691 51.1777 123.648 51.1777C126.695 51.1777 129.293 50.7285 131.441 49.8301C133.551 50.377 135.191 51.5684 136.363 53.4043C137.32 54.9082 137.799 56.6758 137.799 58.707C137.799 62.3203 136.266 65.1328 133.199 67.1445C130.133 69.1562 126.178 70.1621 121.334 70.1621C116.51 70.1621 112.779 69.3027 110.143 67.584C107.701 66.0215 106.48 63.9902 106.48 61.4902C106.48 60.5332 106.705 59.6152 107.154 58.7363C107.604 57.8379 108.121 57.2227 108.707 56.8906C109.684 57.7109 111.119 58.375 113.014 58.8828C114.928 59.3906 116.891 59.6445 118.902 59.6445C120.914 59.6445 122.203 59.5664 122.77 59.4102C123.355 59.2539 123.648 58.9805 123.648 58.5898C123.648 58.3945 123.59 58.1992 123.473 58.0039C122.496 58.2188 121.275 58.3262 119.811 58.3262C116.041 58.3262 113.082 57.7891 110.934 56.7148C108.316 55.4258 107.008 53.4824 107.008 50.8848C107.008 49.8691 107.213 48.9316 107.623 48.0723C108.033 47.1934 108.639 46.5391 109.439 46.1094C108.365 45.4453 107.447 44.4395 106.686 43.0918C105.943 41.7441 105.572 40.084 105.572 38.1113C105.572 34.3613 106.979 31.4023 109.791 29.2344C112.604 27.0664 116.256 25.9824 120.748 25.9824C122.916 25.9824 125.006 26.3437 127.018 27.0664V25.0156C128.17 24.5664 129.693 24.3418 131.588 24.3418C133.502 24.3418 134.957 24.6641 135.953 25.3086C137.164 26.0898 137.77 27.4668 137.77 29.4395C137.77 30.5332 137.652 31.4121 137.418 32.0762C137.203 32.7402 136.881 33.4336 136.451 34.1562C136.959 35.4453 137.213 37.0469 137.213 38.9609C137.213 42.418 135.982 45.1035 133.521 47.0176C131.08 48.9121 127.789 49.8594 123.648 49.8594ZM156.256 37.9941C156.256 37.291 155.992 36.9395 155.465 36.9395C154.977 36.9395 154.732 37.2324 154.732 37.8184V40.8359C154.889 40.9727 155.123 41.041 155.436 41.041C155.748 41.041 155.963 40.9238 156.08 40.6895C156.197 40.4551 156.256 40.0254 156.256 39.4004V37.9941ZM157.34 49.8594C156.09 49.8594 155.025 49.7715 154.146 49.5957C154.088 49.7715 154.059 49.9375 154.059 50.0938C154.059 50.5234 154.361 50.8164 154.967 50.9727C155.592 51.1094 156.383 51.1777 157.34 51.1777C160.387 51.1777 162.984 50.7285 165.133 49.8301C167.242 50.377 168.883 51.5684 170.055 53.4043C171.012 54.9082 171.49 56.6758 171.49 58.707C171.49 62.3203 169.957 65.1328 166.891 67.1445C163.824 69.1562 159.869 70.1621 155.025 70.1621C150.201 70.1621 146.471 69.3027 143.834 67.584C141.393 66.0215 140.172 63.9902 140.172 61.4902C140.172 60.5332 140.396 59.6152 140.846 58.7363C141.295 57.8379 141.812 57.2227 142.398 56.8906C143.375 57.7109 144.811 58.375 146.705 58.8828C148.619 59.3906 150.582 59.6445 152.594 59.6445C154.605 59.6445 155.895 59.5664 156.461 59.4102C157.047 59.2539 157.34 58.9805 157.34 58.5898C157.34 58.3945 157.281 58.1992 157.164 58.0039C156.188 58.2188 154.967 58.3262 153.502 58.3262C149.732 58.3262 146.773 57.7891 144.625 56.7148C142.008 55.4258 140.699 53.4824 140.699 50.8848C140.699 49.8691 140.904 48.9316 141.314 48.0723C141.725 47.1934 142.33 46.5391 143.131 46.1094C142.057 45.4453 141.139 44.4395 140.377 43.0918C139.635 41.7441 139.264 40.084 139.264 38.1113C139.264 34.3613 140.67 31.4023 143.482 29.2344C146.295 27.0664 149.947 25.9824 154.439 25.9824C156.607 25.9824 158.697 26.3437 160.709 27.0664V25.0156C161.861 24.5664 163.385 24.3418 165.279 24.3418C167.193 24.3418 168.648 24.6641 169.645 25.3086C170.855 26.0898 171.461 27.4668 171.461 29.4395C171.461 30.5332 171.344 31.4121 171.109 32.0762C170.895 32.7402 170.572 33.4336 170.143 34.1562C170.65 35.4453 170.904 37.0469 170.904 38.9609C170.904 42.418 169.674 45.1035 167.213 47.0176C164.771 48.9121 161.48 49.8594 157.34 49.8594ZM189.566 46.2266C189.801 46.2266 190.055 46.1289 190.328 45.9336C190.133 45.2891 190.035 44.2832 190.035 42.916V28.4434C192.105 27.1934 194.596 26.5684 197.506 26.5684C199.146 26.5684 200.582 26.793 201.812 27.2422C203.062 27.6719 204.02 28.248 204.684 28.9707V44.2344C204.684 47.1445 205.387 49.0391 206.793 49.918C206.812 50.0156 206.822 50.2012 206.822 50.4746V51.002C206.822 53.8535 206.07 56.0117 204.566 57.4766C203.199 58.8438 201.314 59.5273 198.912 59.5273C197.408 59.5273 196.041 59.1855 194.811 58.502C193.6 57.8184 192.691 56.8223 192.086 55.5137C191.422 55.5137 191.09 55.8359 191.09 56.4805C191.09 56.9297 191.314 57.3789 191.764 57.8281C191.139 58.3359 190.387 58.7461 189.508 59.0586C188.629 59.3711 187.33 59.5273 185.611 59.5273C183.912 59.5273 182.252 59.1758 180.631 58.4727C178.619 57.6133 177.076 56.2949 176.002 54.5176C174.693 52.4082 174.039 49.7324 174.039 46.4902V39.1367C173.043 37.3984 172.545 35.4844 172.545 33.3945C172.545 32.3203 172.682 31.207 172.955 30.0547C173.229 28.9023 173.668 27.877 174.273 26.9785H180.719C183.141 26.9785 185.035 27.5547 186.402 28.707C187.789 29.8398 188.482 31.5684 188.482 33.8926V43.3848C188.482 45.2793 188.844 46.2266 189.566 46.2266Z" fill="#FF8888"/>
</g>
<defs>
<filter id="filter0_i_336_34" x="4.49805" y="24.3418" width="202.324" height="49.8203" filterUnits="userSpaceOnUse" color-interpolation-filters="sRGB">
<feFlood flood-opacity="0" result="BackgroundImageFix"/>
<feBlend mode="normal" in="SourceGraphic" in2="BackgroundImageFix" result="shape"/>
<feColorMatrix in="SourceAlpha" type="matrix" values="0 0 0 0 0 0 0 0 0 0 0 0 0 0 0 0 0 0 127 0" result="hardAlpha"/>
<feOffset dy="4"/>
<feGaussianBlur stdDeviation="2"/>
<feComposite in2="hardAlpha" operator="arithmetic" k2="-1" k3="1"/>
<feColorMatrix type="matrix" values="0 0 0 0 0 0 0 0 0 0 0 0 0 0 0 0 0 0 0.25 0"/>
<feBlend mode="normal" in2="shape" result="effect1_innerShadow_336_34"/>
</filter>
<filter id="filter1_f_336_34" x="0.498047" y="20.3418" width="210.324" height="53.8203" filterUnits="userSpaceOnUse" color-interpolation-filters="sRGB">
<feFlood flood-opacity="0" result="BackgroundImageFix"/>
<feBlend mode="normal" in="SourceGraphic" in2="BackgroundImageFix" result="shape"/>
<feGaussianBlur stdDeviation="2" result="effect1_foregroundBlur_336_34"/>
</filter>
</defs>
</svg>
